<svg xmlns="http://www.w3.org/2000/svg" data-name="Layer 1" viewBox="0 0 24 24" id="fan"><path fill="#e0e1ef" d="M11.93.53a7.5,7.5,0,0,0-1.5,14.85,7.57,7.57,0,0,0,3,0A7.5,7.5,0,0,0,11.93.53Z"></path><path fill="#f59831" d="M18.43 21.53v2h-13v-2a1 1 0 0 1 1-1h11A1 1 0 0 1 18.43 21.53zM15.43 20.53h-7a2 2 0 0 0 2-2V15.37a7.57 7.57 0 0 0 3 0v3.15A2 2 0 0 0 15.43 20.53z"></path><path fill="#57565c" d="M12.91,7.49a4,4,0,0,0-.83-4.95h-.15A5.44,5.44,0,0,0,8.56,3.69,4,4,0,0,1,11.4,7.1a4,4,0,0,0-4.95.83l0,.09a5.46,5.46,0,0,0,1.18,3.4A4,4,0,0,1,11,8.62a3.86,3.86,0,0,0-.53,2,3.94,3.94,0,0,0,1.3,2.94h.14a5.48,5.48,0,0,0,3.35-1.14A4,4,0,0,1,12.52,9a4,4,0,0,0,2,.52,3.93,3.93,0,0,0,2.93-1.29,1.27,1.27,0,0,0,0-.2,5.47,5.47,0,0,0-1.12-3.32A4,4,0,0,1,12.91,7.49Z"></path><circle cx="11.93" cy="8.02" r="1" fill="#e0e1ef"></circle><path d="M17.43,20h-2a1.5,1.5,0,0,1-1.5-1.5V15.76a8,8,0,1,0-4,0v2.76A1.5,1.5,0,0,1,8.43,20h-2a1.5,1.5,0,0,0-1.5,1.5v2a.5.5,0,0,0,.5.5h13a.5.5,0,0,0,.5-.5v-2A1.5,1.5,0,0,0,17.43,20ZM4.93,8a7,7,0,1,1,8.4,6.86,7.13,7.13,0,0,1-2.11.1,6.58,6.58,0,0,1-.69-.11A7,7,0,0,1,4.93,8Zm8.5,12h-3a2.49,2.49,0,0,0,.5-1.5V16H11a7.51,7.51,0,0,0,1.84,0h.08v2.56A2.49,2.49,0,0,0,13.44,20Zm4.5,3h-12v-1.5a.5.5,0,0,1,.5-.5h11a.5.5,0,0,1,.5.5Zm-6.47-9.14a.5.5,0,0,0,.23.12,1.06,1.06,0,0,0,.25,0,6,6,0,0,0,3.66-1.24.5.5,0,0,0-.15-.87,3.51,3.51,0,0,1-2.21-2.07A4.54,4.54,0,0,0,17.8,8.56a.5.5,0,0,0,.12-.25,1.81,1.81,0,0,0,0-.28A5.93,5.93,0,0,0,16.71,4.4a.5.5,0,0,0-.88.15,3.48,3.48,0,0,1-2.08,2.22,4.47,4.47,0,0,0-1.34-4.62A.5.5,0,0,0,12.19,2a1.2,1.2,0,0,0-.25,0A5.91,5.91,0,0,0,8.26,3.29a.5.5,0,0,0,.17.87,3.52,3.52,0,0,1,2.27,2.1A4.54,4.54,0,0,0,6.08,7.6a.93.93,0,0,0-.13.31.47.47,0,0,0,0,.11,6,6,0,0,0,1.29,3.71.5.5,0,0,0,.87-.17,3.49,3.49,0,0,1,2.08-2.25,4.46,4.46,0,0,0,1.29,4.56Zm2.78-1.42A5.07,5.07,0,0,1,12,13a3.46,3.46,0,0,1-1-2.45,3.39,3.39,0,0,1,.24-1.23,1.48,1.48,0,0,0,.7.18l.17,0A4.48,4.48,0,0,0,14.24,12.46ZM11.43,8a.5.5,0,1,1,.5.5A.5.5,0,0,1,11.43,8Zm2-.12a4.47,4.47,0,0,0,3-2.14A4.93,4.93,0,0,1,16.93,8a3.56,3.56,0,0,1-3.71.75A1.48,1.48,0,0,0,13.43,8S13.43,7.95,13.42,7.91ZM9.63,3.59A5,5,0,0,1,11.88,3a3.45,3.45,0,0,1,.83,3.72,1.48,1.48,0,0,0-.77-.22h-.12A4.44,4.44,0,0,0,9.63,3.59ZM7.52,10.38a4.9,4.9,0,0,1-.58-2.23,3.57,3.57,0,0,1,3.69-.84,1.29,1.29,0,0,0-.18.9A4.46,4.46,0,0,0,7.52,10.38Z"></path></svg>